<svg width="214" height="213" viewBox="0 0 214 213" fill="none" xmlns="http://www.w3.org/2000/svg">
<path d="M39 174.68C39 174.68 78 172.82 82.68 131C40.86 135.6 39 174.68 39 174.68Z" fill="#F5B93B"/>
<path d="M174.68 174.68C174.68 174.68 135.68 172.82 131 131C172.82 135.6 174.68 174.68 174.68 174.68Z" fill="#F5B93B"/>
<path d="M39 39C39 39 78 40.86 82.68 82.69C40.86 78.04 39 39 39 39Z" fill="#F5B93B"/>
<path d="M174.68 39C174.68 39 135.68 40.86 131 82.69C172.82 78.04 174.68 39 174.68 39Z" fill="#F5B93B"/>
<path d="M107.142 3.00002C107.142 3.00002 73.0722 38.36 107.142 82.6C141.222 38.36 107.142 3.00002 107.142 3.00002Z" stroke="#F3A80A" stroke-width="4.11" stroke-linecap="round" stroke-linejoin="round"/>
<path d="M107.142 131C107.142 131 73.0722 166.36 107.142 210.6C141.222 166.36 107.142 131 107.142 131Z" stroke="#F3A80A" stroke-width="4.11" stroke-linecap="round" stroke-linejoin="round"/>
<path d="M3 106.858C3 106.858 38.36 140.928 82.6 106.858C38.36 72.7778 3 106.858 3 106.858Z" stroke="#F3A80A" stroke-width="4.11" stroke-linecap="round" stroke-linejoin="round"/>
<path d="M211 106.858C211 106.858 175.64 140.928 131.4 106.858C175.64 72.7778 211 106.858 211 106.858Z" stroke="#F3A80A" stroke-width="4.11" stroke-linecap="round" stroke-linejoin="round"/>
</svg>
