<svg width="288" height="213" viewBox="0 0 288 213" fill="none" xmlns="http://www.w3.org/2000/svg">
<path d="M39 174.68C39 174.68 78 172.82 82.68 131C40.86 135.6 39 174.68 39 174.68Z" fill="#F5B93B"/>
<path d="M174.68 174.68C174.68 174.68 135.68 172.82 131 131C172.82 135.6 174.68 174.68 174.68 174.68Z" fill="#F5B93B"/>
<path d="M39 39C39 39 78 40.86 82.68 82.69C40.86 78.04 39 39 39 39Z" fill="#F5B93B"/>
<path d="M174.68 39C174.68 39 135.68 40.86 131 82.69C172.82 78.04 174.68 39 174.68 39Z" fill="#F5B93B"/>
<path d="M107.142 3C107.142 3 73.0722 38.36 107.142 82.6C141.222 38.36 107.142 3 107.142 3Z" stroke="#F3A80A" stroke-width="4.11" stroke-linecap="round" stroke-linejoin="round"/>
<path d="M107.142 131C107.142 131 73.0722 166.36 107.142 210.6C141.222 166.36 107.142 131 107.142 131Z" stroke="#F3A80A" stroke-width="4.11" stroke-linecap="round" stroke-linejoin="round"/>
<path d="M3 106.858C3 106.858 38.36 140.928 82.6 106.858C38.36 72.7778 3 106.858 3 106.858Z" stroke="#F3A80A" stroke-width="4.11" stroke-linecap="round" stroke-linejoin="round"/>
<path d="M96.4034 126V89.6364H118.349V93.5426H100.807V105.83H117.213V109.736H100.807V122.094H118.634V126H96.4034ZM145.036 104.835L141.272 105.901C141.035 105.273 140.686 104.664 140.224 104.072C139.775 103.468 139.159 102.971 138.378 102.58C137.597 102.19 136.596 101.994 135.377 101.994C133.708 101.994 132.317 102.379 131.205 103.148C130.104 103.906 129.553 104.871 129.553 106.043C129.553 107.084 129.932 107.907 130.69 108.511C131.447 109.114 132.631 109.617 134.241 110.02L138.289 111.014C140.728 111.606 142.545 112.512 143.74 113.731C144.936 114.938 145.533 116.495 145.533 118.401C145.533 119.963 145.084 121.36 144.184 122.591C143.296 123.822 142.053 124.793 140.455 125.503C138.857 126.213 136.999 126.568 134.88 126.568C132.098 126.568 129.796 125.964 127.973 124.757C126.15 123.55 124.996 121.786 124.511 119.466L128.488 118.472C128.867 119.939 129.583 121.04 130.636 121.774C131.702 122.508 133.093 122.875 134.809 122.875C136.762 122.875 138.313 122.461 139.461 121.632C140.621 120.792 141.201 119.786 141.201 118.614C141.201 117.667 140.87 116.874 140.207 116.234C139.544 115.583 138.526 115.098 137.153 114.778L132.607 113.713C130.11 113.121 128.275 112.204 127.103 110.961C125.943 109.706 125.363 108.138 125.363 106.256C125.363 104.717 125.795 103.356 126.659 102.172C127.535 100.988 128.725 100.059 130.228 99.3842C131.743 98.7095 133.46 98.3722 135.377 98.3722C138.076 98.3722 140.195 98.964 141.734 100.148C143.284 101.331 144.385 102.894 145.036 104.835ZM171.159 104.835L167.395 105.901C167.158 105.273 166.809 104.664 166.347 104.072C165.898 103.468 165.282 102.971 164.501 102.58C163.72 102.19 162.719 101.994 161.5 101.994C159.831 101.994 158.44 102.379 157.328 103.148C156.227 103.906 155.676 104.871 155.676 106.043C155.676 107.084 156.055 107.907 156.813 108.511C157.57 109.114 158.754 109.617 160.364 110.02L164.412 111.014C166.851 111.606 168.668 112.512 169.863 113.731C171.059 114.938 171.656 116.495 171.656 118.401C171.656 119.963 171.207 121.36 170.307 122.591C169.419 123.822 168.176 124.793 166.578 125.503C164.98 126.213 163.122 126.568 161.003 126.568C158.221 126.568 155.919 125.964 154.096 124.757C152.273 123.55 151.119 121.786 150.634 119.466L154.611 118.472C154.99 119.939 155.706 121.04 156.759 121.774C157.825 122.508 159.216 122.875 160.932 122.875C162.885 122.875 164.436 122.461 165.584 121.632C166.744 120.792 167.324 119.786 167.324 118.614C167.324 117.667 166.993 116.874 166.33 116.234C165.667 115.583 164.649 115.098 163.276 114.778L158.73 113.713C156.233 113.121 154.398 112.204 153.226 110.961C152.066 109.706 151.486 108.138 151.486 106.256C151.486 104.717 151.918 103.356 152.782 102.172C153.658 100.988 154.848 100.059 156.351 99.3842C157.866 98.7095 159.583 98.3722 161.5 98.3722C164.199 98.3722 166.318 98.964 167.857 100.148C169.407 101.331 170.508 102.894 171.159 104.835ZM189.399 126.568C186.771 126.568 184.504 125.988 182.598 124.828C180.704 123.656 179.243 122.023 178.213 119.928C177.195 117.821 176.686 115.37 176.686 112.577C176.686 109.783 177.195 107.321 178.213 105.19C179.243 103.048 180.675 101.379 182.51 100.183C184.356 98.9759 186.511 98.3722 188.973 98.3722C190.393 98.3722 191.796 98.6089 193.181 99.0824C194.566 99.5559 195.826 100.325 196.963 101.391C198.099 102.444 199.005 103.841 199.679 105.581C200.354 107.321 200.691 109.464 200.691 112.009V113.784H179.669V110.162H196.43C196.43 108.623 196.122 107.25 195.507 106.043C194.903 104.835 194.039 103.882 192.914 103.184C191.802 102.486 190.488 102.136 188.973 102.136C187.304 102.136 185.859 102.551 184.64 103.379C183.433 104.196 182.504 105.261 181.853 106.575C181.202 107.889 180.876 109.298 180.876 110.801V113.216C180.876 115.276 181.231 117.022 181.941 118.454C182.663 119.874 183.664 120.957 184.942 121.703C186.221 122.437 187.706 122.804 189.399 122.804C190.5 122.804 191.494 122.65 192.382 122.342C193.281 122.023 194.057 121.549 194.708 120.922C195.359 120.283 195.862 119.49 196.217 118.543L200.265 119.679C199.839 121.052 199.123 122.259 198.117 123.301C197.111 124.331 195.868 125.136 194.388 125.716C192.908 126.284 191.245 126.568 189.399 126.568ZM211.256 109.594V126H207.066V98.7273H211.114V102.989H211.469C212.108 101.604 213.079 100.491 214.381 99.6506C215.683 98.7983 217.364 98.3722 219.424 98.3722C221.27 98.3722 222.886 98.7509 224.271 99.5085C225.656 100.254 226.733 101.391 227.502 102.918C228.272 104.433 228.657 106.35 228.657 108.67V126H224.466V108.955C224.466 106.812 223.91 105.143 222.797 103.947C221.685 102.74 220.158 102.136 218.216 102.136C216.879 102.136 215.683 102.426 214.63 103.006C213.588 103.586 212.765 104.433 212.162 105.545C211.558 106.658 211.256 108.008 211.256 109.594ZM235.532 126V122.804L251.015 102.918V102.634H236.03V98.7273H256.413V102.065L241.356 121.81V122.094H256.91V126H235.532ZM271.39 126.639C269.662 126.639 268.093 126.314 266.685 125.663C265.276 125 264.158 124.047 263.329 122.804C262.5 121.549 262.086 120.034 262.086 118.259C262.086 116.696 262.394 115.429 263.009 114.459C263.625 113.476 264.448 112.707 265.477 112.151C266.507 111.594 267.644 111.18 268.887 110.908C270.141 110.624 271.402 110.399 272.669 110.233C274.326 110.02 275.669 109.86 276.699 109.754C277.741 109.635 278.498 109.44 278.972 109.168C279.457 108.895 279.7 108.422 279.7 107.747V107.605C279.7 105.853 279.22 104.492 278.262 103.521C277.315 102.551 275.876 102.065 273.947 102.065C271.946 102.065 270.378 102.503 269.242 103.379C268.105 104.255 267.306 105.19 266.845 106.185L262.867 104.764C263.578 103.107 264.525 101.817 265.708 100.893C266.904 99.9583 268.206 99.3073 269.615 98.9403C271.035 98.5616 272.432 98.3722 273.805 98.3722C274.681 98.3722 275.687 98.4787 276.823 98.6918C277.972 98.893 279.078 99.3132 280.144 99.9524C281.221 100.592 282.115 101.556 282.825 102.847C283.535 104.137 283.89 105.865 283.89 108.031V126H279.7V122.307H279.487C279.203 122.899 278.729 123.532 278.066 124.207C277.403 124.881 276.521 125.455 275.421 125.929C274.32 126.402 272.976 126.639 271.39 126.639ZM272.029 122.875C273.686 122.875 275.083 122.549 276.22 121.898C277.368 121.247 278.232 120.407 278.812 119.377C279.404 118.347 279.7 117.264 279.7 116.128V112.293C279.522 112.506 279.132 112.701 278.528 112.879C277.936 113.044 277.249 113.192 276.468 113.322C275.699 113.441 274.947 113.547 274.213 113.642C273.491 113.725 272.905 113.796 272.455 113.855C271.366 113.997 270.348 114.228 269.401 114.548C268.466 114.855 267.709 115.323 267.129 115.95C266.561 116.566 266.276 117.406 266.276 118.472C266.276 119.928 266.815 121.028 267.892 121.774C268.981 122.508 270.36 122.875 272.029 122.875Z" fill="#F3A80A"/>
</svg>
